<?xml version="1.0" encoding="UTF-8" standalone="no"?>
<svg width="11px" height="17px" viewBox="0 0 11 17" version="1.1" xmlns="http://www.w3.org/2000/svg" xmlns:xlink="http://www.w3.org/1999/xlink">
    <!-- Generator: Sketch 3.8.1 (29687) - http://www.bohemiancoding.com/sketch -->
    <title>Shape</title>
    <desc>Created with Sketch.</desc>
    <defs></defs>
    <g id="Page-1" stroke="none" stroke-width="1" fill="none" fill-rule="evenodd">
        <g id="simbolos" transform="translate(-8.000000, -111.000000)" fill="#FDDC0D">
            <path d="M17.2,112.6 C15.2,110.6 12.1,110.6 10.1,112.6 C8.1,114.6 8.1,117.7 10.1,119.7 C10.1,119.7 13.6,123.2 13.6,127.2 C13.6,123.2 17.1,119.7 17.1,119.7 C19.1,117.8 19.1,114.6 17.2,112.6 M13.6,118.2 C12.5,118.2 11.6,117.3 11.6,116.2 C11.6,115.1 12.5,114.2 13.6,114.2 C14.7,114.2 15.6,115.1 15.6,116.2 C15.6,117.3 14.8,118.2 13.6,118.2" id="Shape"></path>
        </g>
    </g>
</svg>