<?xml version="1.0" encoding="UTF-8" standalone="no"?>
<svg width="17px" height="18px" viewBox="0 0 17 18" version="1.1" xmlns="http://www.w3.org/2000/svg" xmlns:xlink="http://www.w3.org/1999/xlink">
    <!-- Generator: Sketch 3.8.1 (29687) - http://www.bohemiancoding.com/sketch -->
    <title>Shape</title>
    <desc>Created with Sketch.</desc>
    <defs></defs>
    <g id="Page-1" stroke="none" stroke-width="1" fill="none" fill-rule="evenodd">
        <g id="simbolos" transform="translate(-5.000000, -68.000000)" fill="#FDDC0D">
            <path d="M20,71.3 C19,70.3 17.8,69.6 16.5,69.1 C17,68.5 17.8,68.2 18.7,68.2 C20.3,68.2 21.7,69.5 21.7,71.2 C21.7,71.8 21.5,72.3 21.3,72.8 C20.8,72.2 20.4,71.8 20,71.3 L20,71.3 Z M5.8,71.2 C5.8,69.6 7.1,68.2 8.8,68.2 C9.7,68.2 10.4,68.6 11,69.1 C9.7,69.5 8.5,70.2 7.5,71.3 C7.1,71.7 6.7,72.2 6.3,72.7 C6,72.3 5.8,71.7 5.8,71.2 L5.8,71.2 Z M17.9,77.7 C17.9,77.4 18.2,77.1 18.5,77.1 C18.8,77.1 19.1,77.4 19.1,77.7 C19.1,78 18.8,78.3 18.5,78.3 C18.1,78.4 17.9,78.1 17.9,77.7 L17.9,77.7 Z M8.3,77.7 C8.3,77.4 8.6,77.1 8.9,77.1 C9.2,77.1 9.5,77.4 9.5,77.7 C9.5,78 9.2,78.3 8.9,78.3 C8.6,78.3 8.3,78.1 8.3,77.7 L8.3,77.7 Z M13,79.4 L13,78.4 L12,78.4 L12,77.1 L13,77.1 L13,72.2 L13,72.2 C13,71.9 13.3,71.6 13.6,71.6 C13.9,71.6 14.2,71.9 14.2,72.2 L14.2,72.2 L14.2,77.1 L16.8,77.1 L16.8,78.4 L14.2,78.4 L14.2,79.4 L13,79.4 L13,79.4 Z M13,82.5 C13,82.2 13.3,81.9 13.6,81.9 C13.9,81.9 14.2,82.2 14.2,82.5 C14.2,82.8 13.9,83.1 13.6,83.1 C13.3,83.1 13,82.9 13,82.5 L13,82.5 Z M20.1,77.6 C20.1,74 17.2,71.2 13.7,71.2 C10.1,71.2 7.3,74.1 7.3,77.6 C7.3,81.2 10.2,84 13.7,84 C17.2,84.1 20.1,81.2 20.1,77.6 L20.1,77.6 Z M5.6,77.6 C5.6,73.2 9.2,69.6 13.6,69.6 C18,69.6 21.6,73.2 21.6,77.6 C21.6,82 18,85.6 13.6,85.6 C9.2,85.6 5.6,82 5.6,77.6 L5.6,77.6 Z" id="Shape"></path>
        </g>
    </g>
</svg>